<?xml version="1.0" encoding="utf-8"?>
<!-- Generator: Adobe Illustrator 19.2.0, SVG Export Plug-In . SVG Version: 6.00 Build 0)  -->
<svg version="1.1" id="Layer_1" xmlns="http://www.w3.org/2000/svg" xmlns:xlink="http://www.w3.org/1999/xlink" x="0px" y="0px"
	 viewBox="0 0 126.6 17.1" style="enable-background:new 0 0 126.6 17.1;" xml:space="preserve">
<style type="text/css">
	.st0{fill:#03363D;}
</style>
<g>
	<g>
		<path class="st0" d="M20.6,5.6v6.9h-2.8V5.9c0-2.1-1-3.2-2.7-3.2C13.3,2.7,12,4,12,6.4v6.1H9.1V5.9c0-2.1-1-3.2-2.7-3.2
			C4.6,2.7,3.3,4,3.3,6.4v6.1H0.5V0.4h2.7v1.5c0.9-1.1,2.3-1.7,4-1.7c1.8,0,3.2,0.7,4.1,2c1-1.2,2.6-2,4.5-2
			C18.6,0.3,20.6,1.9,20.6,5.6z"/>
		<path class="st0" d="M35.6,7.3h-9.5c0.3,1.8,1.8,2.9,3.9,2.9c1.4,0,2.4-0.4,3.3-1.3l1.5,1.7c-1.1,1.3-2.8,2-4.9,2
			c-4,0-6.7-2.6-6.7-6.2c0-3.6,2.6-6.2,6.2-6.2c3.5,0,6.1,2.5,6.1,6.2C35.7,6.7,35.7,7.1,35.6,7.3z M26.2,5.5H33
			c-0.2-1.7-1.6-2.9-3.4-2.9C27.8,2.5,26.4,3.7,26.2,5.5z"/>
		<path class="st0" d="M57,0.4l-4.4,12.1h-2.7l-3.1-8.3l-3.2,8.3h-2.7L36.4,0.4h2.7l3.2,8.9l3.3-8.9h2.4l3.3,9l3.3-9H57z"/>
		<path class="st0" d="M69.9,7.3h-9.5c0.3,1.8,1.8,2.9,3.9,2.9c1.4,0,2.4-0.4,3.3-1.3l1.5,1.7c-1.1,1.3-2.8,2-4.9,2
			c-4,0-6.7-2.6-6.7-6.2c0-3.6,2.6-6.2,6.2-6.2c3.5,0,6.1,2.5,6.1,6.2C69.9,6.7,69.9,7.1,69.9,7.3z M60.4,5.5h6.8
			c-0.2-1.7-1.6-2.9-3.4-2.9C62,2.5,60.7,3.7,60.4,5.5z"/>
		<path class="st0" d="M82.4,5.4v7.1h-2.7V11c-0.7,1-2,1.6-3.8,1.6c-2.8,0-4.5-1.5-4.5-3.6c0-2,1.4-3.6,5-3.6h3.1V5.2
			c0-1.7-1-2.6-3-2.6c-1.4,0-2.8,0.5-3.7,1.2l-1.1-2.1c1.3-1,3.2-1.5,5.1-1.5C80.4,0.3,82.4,1.9,82.4,5.4z M79.5,8.7V7.3h-2.9
			c-1.9,0-2.4,0.7-2.4,1.6c0,1,0.9,1.7,2.3,1.7C77.9,10.6,79.1,10,79.5,8.7z"/>
		<path class="st0" d="M98.8,6.4c0,3.8-2.6,6.2-6.1,6.2c-1.5,0-2.9-0.5-3.9-1.6v5.9H86V0.4h2.7V2c0.9-1.2,2.3-1.7,4-1.7
			C96.2,0.3,98.8,2.7,98.8,6.4z M95.9,6.4c0-2.3-1.5-3.8-3.6-3.8c-2,0-3.6,1.5-3.6,3.8c0,2.3,1.6,3.8,3.6,3.8
			C94.4,10.2,95.9,8.8,95.9,6.4z"/>
		<path class="st0" d="M114.3,6.4c0,3.8-2.6,6.2-6.1,6.2c-1.5,0-2.9-0.5-3.9-1.6v5.9h-2.8V0.4h2.7V2c0.9-1.2,2.3-1.7,4-1.7
			C111.7,0.3,114.3,2.7,114.3,6.4z M111.4,6.4c0-2.3-1.5-3.8-3.6-3.8c-2,0-3.6,1.5-3.6,3.8c0,2.3,1.6,3.8,3.6,3.8
			C109.9,10.2,111.4,8.8,111.4,6.4z"/>
	</g>
	<path class="st0" d="M116.2,9.9l2.3-1.2c0.6,1.1,1.8,1.8,3,1.7c1.4,0,2.1-0.7,2.1-1.6c0-0.8-1.4-1.2-2.9-1.5
		c-2-0.4-4.1-1.1-4.1-3.5c0-1.9,1.8-3.6,4.6-3.6c1.9-0.1,3.7,0.8,4.8,2.3l-2.1,1.2c-0.6-0.9-1.6-1.4-2.6-1.3c-1.3,0-2,0.7-2,1.4
		s1.1,1.1,2.8,1.5c1.9,0.4,4.1,1.1,4.1,3.5c0,1.6-1.4,3.8-4.8,3.8C119.3,12.8,117.3,11.8,116.2,9.9z"/>
</g>
</svg>
