<?xml version="1.0" encoding="utf-8"?>
<!-- Generator: Adobe Illustrator 19.2.0, SVG Export Plug-In . SVG Version: 6.00 Build 0)  -->
<svg version="1.1" id="Layer_1" xmlns="http://www.w3.org/2000/svg" xmlns:xlink="http://www.w3.org/1999/xlink" x="0px" y="0px"
	 viewBox="0 0 101 25.7" style="enable-background:new 0 0 101 25.7;" xml:space="preserve">
<style type="text/css">
	.st0{fill:#03363D;}
</style>
<g>
	<g>
		<g>
			<path class="st0" d="M15.6,6.3L9.6,20.5H6.1L0.1,6.3h3.5l4.4,10.5l4.5-10.5C12.4,6.3,15.6,6.3,15.6,6.3z"/>
			<path class="st0" d="M18.3,6.3h3.3v14.2h-3.3V6.3z"/>
			<path class="st0" d="M41.5,13.4c0,4.4-3.1,7.3-7.2,7.3c-1.8,0-3.4-0.6-4.5-1.9v6.9h-3.3V6.3h3.2v1.9c1.1-1.4,2.8-2,4.7-2
				C38.5,6.2,41.5,9,41.5,13.4z M38.2,13.4c0-2.7-1.8-4.4-4.2-4.4s-4.2,1.7-4.2,4.4s1.8,4.4,4.2,4.4S38.2,16.1,38.2,13.4z"/>
			<path class="st0" d="M45.2,0.8h3.3v19.7h-3.3V0.8z"/>
			<path class="st0" d="M53,2c0-1.1,0.9-2,2.1-2c1.2,0,2.1,0.8,2.1,1.9C57.1,3.1,56.2,4,55,4S53,3.1,53,2z M53.4,6.3h3.3v14.2h-3.3
				V6.3z"/>
			<path class="st0" d="M85.3,12.4v8.1h-3.3v-7.7c0-2.5-1.2-3.7-3.2-3.7c-2.2,0-3.7,1.4-3.7,4.3v7.2h-3.3v-7.7
				c0-2.5-1.2-3.7-3.2-3.7c-2.2,0-3.7,1.4-3.7,4.3v7.2h-3.3V6.3h3.2v1.8c1.1-1.3,2.7-2,4.6-2c2.1,0,3.8,0.8,4.8,2.4
				c1.1-1.5,3.1-2.4,5.3-2.4C82.8,6.2,85.3,8.1,85.3,12.4z"/>
		</g>
		<path class="st0" d="M89.3,17.3l2.6-1.4c0.7,1.3,2.1,2,3.5,2c1.6,0,2.5-0.8,2.5-1.8s-1.6-1.3-3.3-1.7c-2.3-0.5-4.7-1.3-4.7-4.1
			c0-2.2,2.1-4.2,5.3-4.2c2.2-0.1,4.3,0.9,5.5,2.7l-2.4,1.4c-0.7-1-1.8-1.6-3.1-1.6c-1.6,0-2.3,0.8-2.3,1.6c0,0.9,1.3,1.3,3.2,1.7
			c2.2,0.5,4.8,1.2,4.8,4.1c0,1.9-1.6,4.4-5.5,4.4C92.9,20.7,90.5,19.5,89.3,17.3z"/>
	</g>
	<path class="st0" d="M17.8,2c0-1.1,0.9-2,2.1-2S22,0.8,22,1.9C22,3.1,21.1,4,19.9,4C18.7,4,17.8,3.1,17.8,2z"/>
</g>
</svg>
